<mxfile host="65bd71144e">
    <diagram id="Qe0zxrH3L94IVAABCyRu" name="Page-1">
        <mxGraphModel dx="959" dy="779" grid="1" gridSize="10" guides="1" tooltips="1" connect="1" arrows="1" fold="1" page="1" pageScale="1" pageWidth="850" pageHeight="1100" math="0" shadow="0">
            <root>
                <mxCell id="0"/>
                <mxCell id="1" parent="0"/>
                <mxCell id="2" value="CLASS zoeken" style="swimlane;childLayout=stackLayout;resizeParent=1;resizeParentMax=0;startSize=20;html=1;fillColor=none;" parent="1" vertex="1">
                    <mxGeometry x="80" y="100" width="760" height="500" as="geometry">
                        <mxRectangle x="80" y="100" width="130" height="30" as="alternateBounds"/>
                    </mxGeometry>
                </mxCell>
                <mxCell id="3" value="Controller" style="swimlane;startSize=20;html=1;" parent="2" vertex="1">
                    <mxGeometry y="20" width="170" height="480" as="geometry"/>
                </mxCell>
                <mxCell id="4" style="edgeStyle=none;html=1;exitX=0.5;exitY=1;exitDx=0;exitDy=0;entryX=0.5;entryY=0;entryDx=0;entryDy=0;" parent="3" source="5" target="7" edge="1">
                    <mxGeometry relative="1" as="geometry"/>
                </mxCell>
                <mxCell id="5" value="Initialisatie" style="rounded=0;whiteSpace=wrap;html=1;" parent="3" vertex="1">
                    <mxGeometry x="25" y="40" width="120" height="60" as="geometry"/>
                </mxCell>
                <mxCell id="6" style="edgeStyle=none;html=1;exitX=0.5;exitY=1;exitDx=0;exitDy=0;" parent="3" source="7" target="8" edge="1">
                    <mxGeometry relative="1" as="geometry"/>
                </mxCell>
                <mxCell id="7" value="Typ keywords in zoekbalk" style="rounded=0;whiteSpace=wrap;html=1;" parent="3" vertex="1">
                    <mxGeometry x="25" y="180" width="120" height="60" as="geometry"/>
                </mxCell>
                <mxCell id="8" value="Toon resultaat zoekopdracht" style="rounded=0;whiteSpace=wrap;html=1;" parent="3" vertex="1">
                    <mxGeometry x="25" y="320" width="120" height="60" as="geometry"/>
                </mxCell>
                <mxCell id="9" style="edgeStyle=none;html=1;exitX=0;exitY=0.5;exitDx=0;exitDy=0;entryX=1;entryY=0.5;entryDx=0;entryDy=0;" parent="2" source="13" target="7" edge="1">
                    <mxGeometry relative="1" as="geometry"/>
                </mxCell>
                <mxCell id="10" value="Business logic" style="swimlane;startSize=20;html=1;" parent="2" vertex="1">
                    <mxGeometry x="170" y="20" width="370" height="480" as="geometry"/>
                </mxCell>
                <mxCell id="11" style="edgeStyle=none;html=1;exitX=1;exitY=0.5;exitDx=0;exitDy=0;entryX=0;entryY=0.5;entryDx=0;entryDy=0;" parent="10" source="13" target="14" edge="1">
                    <mxGeometry relative="1" as="geometry">
                        <Array as="points">
                            <mxPoint x="170" y="123"/>
                        </Array>
                    </mxGeometry>
                </mxCell>
                <mxCell id="35" style="edgeStyle=none;html=1;exitX=1;exitY=0.5;exitDx=0;exitDy=0;entryX=0;entryY=0.5;entryDx=0;entryDy=0;" edge="1" parent="10" source="13" target="15">
                    <mxGeometry relative="1" as="geometry">
                        <Array as="points">
                            <mxPoint x="170" y="360"/>
                        </Array>
                    </mxGeometry>
                </mxCell>
                <mxCell id="13" value="Voer zoekopdracht uit" style="rounded=0;whiteSpace=wrap;html=1;" parent="10" vertex="1">
                    <mxGeometry x="30" y="180" width="120" height="60" as="geometry"/>
                </mxCell>
                <mxCell id="14" value="Ophalen gerecht" style="rounded=0;whiteSpace=wrap;html=1;" parent="10" vertex="1">
                    <mxGeometry x="190" y="103" width="120" height="40" as="geometry"/>
                </mxCell>
                <mxCell id="15" value="Filter titels aan de hand van keywords" style="rounded=0;whiteSpace=wrap;html=1;" parent="10" vertex="1">
                    <mxGeometry x="190" y="340" width="120" height="40" as="geometry"/>
                </mxCell>
                <mxCell id="26" value="Ophalen ingredient" style="rounded=0;whiteSpace=wrap;html=1;" vertex="1" parent="10">
                    <mxGeometry x="190" y="160" width="120" height="40" as="geometry"/>
                </mxCell>
                <mxCell id="27" value="Ophalen keuken" style="rounded=0;whiteSpace=wrap;html=1;" vertex="1" parent="10">
                    <mxGeometry x="190" y="220" width="120" height="40" as="geometry"/>
                </mxCell>
                <mxCell id="28" value="Ophalen type" style="rounded=0;whiteSpace=wrap;html=1;" vertex="1" parent="10">
                    <mxGeometry x="190" y="280" width="120" height="40" as="geometry"/>
                </mxCell>
                <mxCell id="16" value="Model" style="swimlane;startSize=20;html=1;fillColor=none;" parent="2" vertex="1">
                    <mxGeometry x="540" y="20" width="220" height="480" as="geometry"/>
                </mxCell>
                <mxCell id="29" value="Ophalen ingredient" style="rounded=0;whiteSpace=wrap;html=1;" vertex="1" parent="16">
                    <mxGeometry x="50" y="260" width="120" height="40" as="geometry"/>
                </mxCell>
                <mxCell id="30" value="Ophalen keuken" style="rounded=0;whiteSpace=wrap;html=1;" vertex="1" parent="16">
                    <mxGeometry x="50" y="320" width="120" height="40" as="geometry"/>
                </mxCell>
                <mxCell id="31" value="Ophalen type" style="rounded=0;whiteSpace=wrap;html=1;" vertex="1" parent="16">
                    <mxGeometry x="50" y="380" width="120" height="40" as="geometry"/>
                </mxCell>
                <mxCell id="36" value="Gerecht" style="swimlane;fontStyle=0;childLayout=stackLayout;horizontal=1;startSize=30;horizontalStack=0;resizeParent=1;resizeParentMax=0;resizeLast=0;collapsible=1;marginBottom=0;whiteSpace=wrap;html=1;" vertex="1" parent="16">
                    <mxGeometry x="39.999999999999545" y="30" width="140" height="210" as="geometry"/>
                </mxCell>
                <mxCell id="37" value="ID" style="text;strokeColor=none;fillColor=none;align=left;verticalAlign=middle;spacingLeft=4;spacingRight=4;overflow=hidden;points=[[0,0.5],[1,0.5]];portConstraint=eastwest;rotatable=0;whiteSpace=wrap;html=1;" vertex="1" parent="36">
                    <mxGeometry y="30" width="140" height="20" as="geometry"/>
                </mxCell>
                <mxCell id="38" value="keuken_id" style="text;strokeColor=none;fillColor=none;align=left;verticalAlign=middle;spacingLeft=4;spacingRight=4;overflow=hidden;points=[[0,0.5],[1,0.5]];portConstraint=eastwest;rotatable=0;whiteSpace=wrap;html=1;" vertex="1" parent="36">
                    <mxGeometry y="50" width="140" height="20" as="geometry"/>
                </mxCell>
                <mxCell id="39" value="type_id" style="text;strokeColor=none;fillColor=none;align=left;verticalAlign=middle;spacingLeft=4;spacingRight=4;overflow=hidden;points=[[0,0.5],[1,0.5]];portConstraint=eastwest;rotatable=0;whiteSpace=wrap;html=1;" vertex="1" parent="36">
                    <mxGeometry y="70" width="140" height="20" as="geometry"/>
                </mxCell>
                <mxCell id="40" value="user_id" style="text;strokeColor=none;fillColor=none;align=left;verticalAlign=middle;spacingLeft=4;spacingRight=4;overflow=hidden;points=[[0,0.5],[1,0.5]];portConstraint=eastwest;rotatable=0;whiteSpace=wrap;html=1;" vertex="1" parent="36">
                    <mxGeometry y="90" width="140" height="20" as="geometry"/>
                </mxCell>
                <mxCell id="41" value="datum_toegevoegd" style="text;strokeColor=none;fillColor=none;align=left;verticalAlign=middle;spacingLeft=4;spacingRight=4;overflow=hidden;points=[[0,0.5],[1,0.5]];portConstraint=eastwest;rotatable=0;whiteSpace=wrap;html=1;" vertex="1" parent="36">
                    <mxGeometry y="110" width="140" height="20" as="geometry"/>
                </mxCell>
                <mxCell id="42" value="titel" style="text;strokeColor=none;fillColor=none;align=left;verticalAlign=middle;spacingLeft=4;spacingRight=4;overflow=hidden;points=[[0,0.5],[1,0.5]];portConstraint=eastwest;rotatable=0;whiteSpace=wrap;html=1;" vertex="1" parent="36">
                    <mxGeometry y="130" width="140" height="20" as="geometry"/>
                </mxCell>
                <mxCell id="43" value="korte_omschrijving" style="text;strokeColor=none;fillColor=none;align=left;verticalAlign=middle;spacingLeft=4;spacingRight=4;overflow=hidden;points=[[0,0.5],[1,0.5]];portConstraint=eastwest;rotatable=0;whiteSpace=wrap;html=1;" vertex="1" parent="36">
                    <mxGeometry y="150" width="140" height="20" as="geometry"/>
                </mxCell>
                <mxCell id="44" value="lange_omschrijving" style="text;strokeColor=none;fillColor=none;align=left;verticalAlign=middle;spacingLeft=4;spacingRight=4;overflow=hidden;points=[[0,0.5],[1,0.5]];portConstraint=eastwest;rotatable=0;whiteSpace=wrap;html=1;" vertex="1" parent="36">
                    <mxGeometry y="170" width="140" height="20" as="geometry"/>
                </mxCell>
                <mxCell id="45" value="afbeelding" style="text;strokeColor=none;fillColor=none;align=left;verticalAlign=middle;spacingLeft=4;spacingRight=4;overflow=hidden;points=[[0,0.5],[1,0.5]];portConstraint=eastwest;rotatable=0;whiteSpace=wrap;html=1;" vertex="1" parent="36">
                    <mxGeometry y="190" width="140" height="20" as="geometry"/>
                </mxCell>
                <mxCell id="25" style="edgeStyle=none;html=1;exitX=0;exitY=0.5;exitDx=0;exitDy=0;entryX=1;entryY=0.5;entryDx=0;entryDy=0;" parent="2" target="14" edge="1">
                    <mxGeometry relative="1" as="geometry">
                        <mxPoint x="580" y="143" as="sourcePoint"/>
                    </mxGeometry>
                </mxCell>
                <mxCell id="32" style="edgeStyle=none;html=1;exitX=0;exitY=0.5;exitDx=0;exitDy=0;entryX=1;entryY=0.5;entryDx=0;entryDy=0;" edge="1" parent="2" source="29" target="26">
                    <mxGeometry relative="1" as="geometry"/>
                </mxCell>
                <mxCell id="33" style="edgeStyle=none;html=1;exitX=0;exitY=0.5;exitDx=0;exitDy=0;entryX=1;entryY=0.5;entryDx=0;entryDy=0;" edge="1" parent="2" source="30" target="27">
                    <mxGeometry relative="1" as="geometry"/>
                </mxCell>
                <mxCell id="34" style="edgeStyle=none;html=1;exitX=0;exitY=0.5;exitDx=0;exitDy=0;entryX=1;entryY=0.5;entryDx=0;entryDy=0;" edge="1" parent="2" source="31" target="28">
                    <mxGeometry relative="1" as="geometry"/>
                </mxCell>
            </root>
        </mxGraphModel>
    </diagram>
</mxfile>